<?xml version="1.0" encoding="UTF-8"?>
<svg width="48px" height="48px" viewBox="0 0 48 48" version="1.1" xmlns="http://www.w3.org/2000/svg" xmlns:xlink="http://www.w3.org/1999/xlink">
    <!-- Generator: Sketch 40.3 (33839) - http://www.bohemiancoding.com/sketch -->
    <title>theicons.co/svg/ui-25</title>
    <desc>Created with Sketch.</desc>
    <defs></defs>
    <g id="The-Icons" stroke="none" stroke-width="1" fill="none" fill-rule="evenodd">
        <g id="v-1.3" transform="translate(-864.000000, -2592.000000)" fill="#4D4D4D">
            <g id="UI" transform="translate(96.000000, 2496.000000)">
                <g id="Info" transform="translate(768.000000, 96.000000)">
                    <path d="M26,31 L26,23.0058587 C26,23.0048819 25.9999993,23.0039053 25.9999979,23.0029288 C25.9999993,23.0019534 26,23.0009768 26,23 C26,22.4448545 25.7762782,21.9456445 25.4144165,21.584827 C25.0505233,21.2234757 24.551312,21 24,21 C23.9990131,21 23.9980265,21.0000007 23.99704,21.0000021 C23.9960545,21.0000007 23.9950678,21 23.9940809,21 L21.0059191,21 C19.8865548,21 19,21.8954305 19,23 C19,24.1122704 19.8980806,25 21.0059191,25 L22,25 L22,31 L20.999615,31 C19.8874333,31 19,31.8954305 19,33 C19,34.1122704 19.8952581,35 20.999615,35 L27.000385,35 C28.1125667,35 29,34.1045695 29,33 C29,31.8877296 28.1047419,31 27.000385,31 L26,31 Z M24,44 C35.045695,44 44,35.045695 44,24 C44,12.954305 35.045695,4 24,4 C12.954305,4 4,12.954305 4,24 C4,35.045695 12.954305,44 24,44 Z M24,40 C15.163444,40 8,32.836556 8,24 C8,15.163444 15.163444,8 24,8 C32.836556,8 40,15.163444 40,24 C40,32.836556 32.836556,40 24,40 Z M24,19 C25.6568542,19 27,17.6568542 27,16 C27,14.3431458 25.6568542,13 24,13 C22.3431458,13 21,14.3431458 21,16 C21,17.6568542 22.3431458,19 24,19 Z" id="Combined-Shape"></path>
                </g>
            </g>
        </g>
    </g>
</svg>