<?xml version="1.0" encoding="UTF-8"?>
<svg width="17px" height="17px" viewBox="0 0 17 17" version="1.1" xmlns="http://www.w3.org/2000/svg" xmlns:xlink="http://www.w3.org/1999/xlink">
    <!-- Generator: Sketch 44.1 (41455) - http://www.bohemiancoding.com/sketch -->
    <title>ui 25</title>
    <desc>Created with Sketch.</desc>
    <defs></defs>
    <g id="Page-1" stroke="none" stroke-width="1" fill="none" fill-rule="evenodd">
        <g id="ui-25" fill-rule="nonzero" fill="#49A2CC">
            <path d="M9.35,11.475 L9.35,8.07748995 C9.35,8.07707481 9.3499997,8.07665975 9.34999911,8.07624474 C9.3499997,8.0758302 9.35,8.07541514 9.35,8.075 C9.35,7.83906316 9.25491823,7.62689891 9.10112701,7.47355147 C8.9464724,7.31997717 8.7343076,7.225 8.5,7.225 C8.49958057,7.225 8.49916126,7.2250003 8.498742,7.22500089 C8.49832316,7.2250003 8.49790382,7.225 8.49748438,7.225 L7.22751562,7.225 C6.75178579,7.225 6.375,7.60555796 6.375,8.075 C6.375,8.54771492 6.75668425,8.925 7.22751562,8.925 L7.65,8.925 L7.65,11.475 L7.22483637,11.475 C6.75215915,11.475 6.375,11.855558 6.375,12.325 C6.375,12.7977149 6.75548469,13.175 7.22483637,13.175 L9.77516363,13.175 C10.2478408,13.175 10.625,12.794442 10.625,12.325 C10.625,11.8522851 10.2445153,11.475 9.77516363,11.475 L9.35,11.475 Z M8.5,17 C13.1944204,17 17,13.1944204 17,8.5 C17,3.80557963 13.1944204,0 8.5,0 C3.80557963,0 0,3.80557963 0,8.5 C0,13.1944204 3.80557963,17 8.5,17 Z M8.5,15.3 C4.7444637,15.3 1.7,12.2555363 1.7,8.5 C1.7,4.7444637 4.7444637,1.7 8.5,1.7 C12.2555363,1.7 15.3,4.7444637 15.3,8.5 C15.3,12.2555363 12.2555363,15.3 8.5,15.3 Z M8.5,6.375 C9.20416303,6.375 9.775,5.80416304 9.775,5.1 C9.775,4.39583696 9.20416303,3.825 8.5,3.825 C7.79583696,3.825 7.225,4.39583696 7.225,5.1 C7.225,5.80416304 7.79583696,6.375 8.5,6.375 Z" id="Combined-Shape"></path>
        </g>
    </g>
</svg>